name Run_400 02_newCOP3_v24.mot
datacolumns 19
datarows 108
range 3.115 3.1685
DataType=double
version=3
OpenSimVersion=4.3-2021-08-27-4bc7ad9
endheader
time	R_ground_force_vx	R_ground_force_vy	R_ground_force_vz	R_ground_force_px	R_ground_force_py	R_ground_force_pz	L_ground_force_vx	L_ground_force_vy	L_ground_force_vz	L_ground_force_px	L_ground_force_py	L_ground_force_pz	R_ground_torque_x	R_ground_torque_y	R_ground_torque_z	L_ground_torque_x	L_ground_torque_y	L_ground_torque_z
3.115	0	0	0	0	0	0	-24.678391	169.558594	-2.350368	1.262717	0	-0.342722	0	0	0	-0	2.006724	-0
3.1155	0	0	0	0	0	0	-25.498968	178.564804	-2.197495	1.263418	0	-0.342445	0	0	0	-0	1.942194	-0
3.116	0	0	0	0	0	0	-26.314127	187.905762	-2.030827	1.264057	0	-0.342172	0	0	0	-0	1.875124	-0
3.1165	0	0	0	0	0	0	-27.122587	197.584198	-1.850116	1.264636	0	-0.341905	0	0	0	-0	1.805527	-0
3.117	0	0	0	0	0	0	-27.923176	207.602295	-1.655132	1.265159	0	-0.341642	0	0	0	-0	1.733421	-0
3.1175	0	0	0	0	0	0	-28.714848	217.961578	-1.445665	1.265626	0	-0.341384	0	0	0	-0	1.658828	-0
3.118	0	0	0	0	0	0	-29.496695	228.662964	-1.221528	1.26604	0	-0.341132	0	0	0	-0	1.58177	-0
3.1185	0	0	0	0	0	0	-30.267969	239.706665	-0.982554	1.266403	0	-0.340885	0	0	0	-0	1.502274	-0
3.119	0	0	0	0	0	0	-31.028091	251.092194	-0.7286	1.266717	0	-0.340644	0	0	0	-0	1.420368	-0
3.1195	0	0	0	0	0	0	-31.776663	262.818359	-0.459547	1.266984	0	-0.340409	0	0	0	-0	1.336083	-0
3.12	0	0	0	0	0	0	-32.513474	274.883209	-0.175301	1.267205	0	-0.340179	0	0	0	-0	1.249453	-0
3.1205	0	0	0	0	0	0	-33.238518	287.284027	0.124204	1.267382	0	-0.339955	0	0	0	-0	1.160516	-0
3.121	0	0	0	0	0	0	-33.952	300.017365	0.439011	1.267517	0	-0.339737	0	0	0	-0	1.069311	-0
3.1215	0	0	0	0	0	0	-34.654331	313.078888	0.769132	1.267611	0	-0.339524	0	0	0	-0	0.9758790000000001	-0
3.122	0	0	0	0	0	0	-35.346142	326.463501	1.114551	1.267667	0	-0.339317	0	0	0	-0	0.880266	-0
3.1225	0	0	0	0	0	0	-36.028275	340.165253	1.475225	1.267686	0	-0.339116	0	0	0	-0	0.782519	-0
3.123	0	0	0	0	0	0	-36.701797	354.177429	1.851076	1.267668	0	-0.338921	0	0	0	-0	0.682688	-0
3.1235	0	0	0	0	0	0	-37.367973	368.492401	2.242	1.267617	0	-0.338731	0	0	0	-0	0.580826	-0
3.124	0	0	0	0	0	0	-38.028294	383.101685	2.647859	1.267532	0	-0.338547	0	0	0	-0	0.476989	-0
3.1245	0	0	0	0	0	0	-38.684429	397.996002	3.068483	1.267416	0	-0.338368	0	0	0	-0	0.371234	-0
3.125	0	0	0	0	0	0	-39.338257	413.165222	3.50367	1.26727	0	-0.338195	0	0	0	-0	0.263622	-0
3.1255	0	0	0	0	0	0	-39.991821	428.598328	3.953182	1.267096	0	-0.338027	0	0	0	-0	0.154215	-0
3.126	0	0	0	0	0	0	-40.647343	444.283508	4.416752	1.266895	0	-0.337865	0	0	0	-0	0.04308	-0
3.1265	0	0	0	0	0	0	-41.307182	460.20813	4.894075	1.266667	0	-0.337708	0	0	0	0	-0.069717	0
3.127	0	0	0	0	0	0	-41.973843	476.358673	5.384813	1.266415	0	-0.337556	0	0	0	0	-0.184104	0
3.1275	0	0	0	0	0	0	-42.649952	492.720947	5.888595	1.26614	0	-0.337409	0	0	0	0	-0.300009	0
3.128	0	0	0	0	0	0	-43.338223	509.279846	6.405011	1.265843	0	-0.337268	0	0	0	0	-0.417358	0
3.1285	0	0	0	0	0	0	-44.041462	526.0196529999999	6.933622	1.265525	0	-0.337131	0	0	0	0	-0.536073	0
3.129	0	0	0	0	0	0	-44.762527	542.923889	7.47395	1.265187	0	-0.336999	0	0	0	0	-0.656076	0
3.1295	0	0	0	0	0	0	-45.504314	559.975281	8.025486000000001	1.264831	0	-0.336872	0	0	0	0	-0.777284	0
3.13	0	0	0	0	0	0	-46.269745	577.156006	8.587683999999999	1.264458	0	-0.33675	0	0	0	0	-0.899616	0
3.1305	0	0	0	0	0	0	-47.061726	594.447693	9.159967	1.264068	0	-0.336632	0	0	0	0	-1.022985	0
3.131	0	0	0	0	0	0	-47.883141	611.831177	9.741724	1.263663	0	-0.336519	0	0	0	0	-1.147305	0
3.1315	0	0	0	0	0	0	-48.73682	629.286987	10.332312	1.263243	0	-0.336411	0	0	0	0	-1.272486	0
3.132	0	0	0	0	0	0	-49.625534	646.795044	10.931056	1.262811	0	-0.336307	0	0	0	0	-1.398438	0
3.1325	0	0	0	0	0	0	-50.551945	664.335022	11.537252	1.262366	0	-0.336207	0	0	0	0	-1.52507	0
3.133	0	0	0	0	0	0	-51.518604	681.885986	12.150167	1.261909	0	-0.336111	0	0	0	0	-1.652287	0
3.1335	0	0	0	0	0	0	-52.527935	699.427002	12.769036	1.261442	0	-0.33602	0	0	0	0	-1.779993	0
3.134	0	0	0	0	0	0	-53.582195	716.936646	13.393074	1.260965	0	-0.335932	0	0	0	0	-1.908093	0
3.1345	0	0	0	0	0	0	-54.683472	734.393616	14.021467	1.260479	0	-0.335849	0	0	0	0	-2.036489	0
3.135	0	0	0	0	0	0	-55.833664	751.776306	14.653378	1.259984	0	-0.33577	0	0	0	0	-2.16508	0
3.1355	0	0	0	0	0	0	-57.034458	769.063293	15.287951	1.259481	0	-0.335695	0	0	0	0	-2.293768	0
3.136	0	0	0	0	0	0	-58.287315	786.233154	15.924311	1.258971	0	-0.335623	0	0	0	0	-2.422451	0
3.1365	0	0	0	0	0	0	-59.593456	803.264709	16.561562	1.258455	0	-0.335556	0	0	0	0	-2.551028	0
3.137	0	0	0	0	0	0	-60.953861	820.137085	17.198799	1.257932	0	-0.335492	0	0	0	0	-2.679394	0
3.1375	0	0	0	0	0	0	-62.36924	836.829651	17.835102	1.257404	0	-0.335432	0	0	0	0	-2.807447	0
3.138	0	0	0	0	0	0	-63.84005	853.322327	18.469545	1.256871	0	-0.335376	0	0	0	0	-2.935083	0
3.1385	0	0	0	0	0	0	-65.366455	869.595642	19.101191	1.256332	0	-0.335323	0	0	0	0	-3.062196	0
3.139	0	0	0	0	0	0	-66.948364	885.630737	19.729101	1.255789	0	-0.335274	0	0	0	0	-3.188683	0
3.1395	0	0	0	0	0	0	-68.585396	901.409485	20.352341	1.255241	0	-0.335229	0	0	0	0	-3.314436	0
3.14	0	0	0	0	0	0	-70.276886	916.914551	20.969973	1.254689	0	-0.335188	0	0	0	0	-3.439353	0
3.1405	0	0	0	0	0	0	-72.021919	932.1297	21.581068	1.254132	0	-0.33515	0	0	0	0	-3.563325	0
3.141	0	0	0	0	0	0	-73.819305	947.039673	22.184711	1.253572	0	-0.335116	0	0	0	0	-3.686249	0
3.1415	0	0	0	0	0	0	-75.667587	961.630249	22.779993	1.253007	0	-0.335086	0	0	0	0	-3.808019	0
3.142	0	0	0	0	0	0	-77.565079	975.888489	23.366026	1.252439	0	-0.33506	0	0	0	0	-3.928529	0
3.1425	0	0	0	0	0	0	-79.50985	989.802734	23.94194	1.251866	0	-0.335037	0	0	0	0	-4.047676	0
3.143	0	0	0	0	0	0	-81.499771	1003.362793	24.506893	1.251288	0	-0.335019	0	0	0	0	-4.165354	0
3.1435	0	0	0	0	0	0	-83.532516	1016.559692	25.060064	1.250706	0	-0.335004	0	0	0	0	-4.28146	0
3.144	0	0	0	0	0	0	-85.60556800000001	1029.386108	25.60067	1.250119	0	-0.334993	0	0	0	0	-4.395891	0
3.1445	0	0	0	0	0	0	-87.716278	1041.836182	26.127956	1.249527	0	-0.334986	0	0	0	0	-4.508545	0
3.145	0	0	0	0	0	0	-89.861862	1053.905762	26.641209	1.24893	0	-0.334984	0	0	0	0	-4.619321	0
3.1455	0	0	0	0	0	0	-92.039444	1065.592285	27.139755	1.248326	0	-0.334985	0	0	0	0	-4.728117	0
3.146	0	0	0	0	0	0	-94.24606300000001	1076.894653	27.622967	1.247716	0	-0.334991	0	0	0	0	-4.834836	0
3.1465	0	0	0	0	0	0	-96.478714	1087.813721	28.09026	1.247099	0	-0.335	0	0	0	0	-4.939378	0
3.147	0	0	0	0	0	0	-98.734375	1098.351807	28.541101	1.246474	0	-0.335014	0	0	0	0	-5.041646	0
3.1475	0	0	0	0	0	0	-101.010033	1108.512939	28.975016	1.245842	0	-0.335032	0	0	0	0	-5.141546	0
3.148	0	0	0	0	0	0	-103.302689	1118.302979	29.391577	1.245201	0	-0.335054	0	0	0	0	-5.238983	0
3.1485	0	0	0	0	0	0	-105.609428	1127.729126	29.790417	1.24455	0	-0.335081	0	0	0	0	-5.333864	0
3.149	0	0	0	0	0	0	-107.927399	1136.800171	30.171228	1.24389	0	-0.335111	0	0	0	0	-5.426099	0
3.1495	0	0	0	0	0	0	-110.25386	1145.526733	30.533762	1.24322	0	-0.335146	0	0	0	0	-5.515598	0
3.15	0	0	0	0	0	0	-112.586189	1153.920654	30.877831	1.242538	0	-0.335184	0	0	0	0	-5.602274	0
3.1505	0	0	0	0	0	0	-114.921898	1161.994995	31.20331	1.241844	0	-0.335227	0	0	0	0	-5.686042	0
3.151	0	0	0	0	0	0	-117.258644	1169.764648	31.510136	1.241138	0	-0.335274	0	0	0	0	-5.766818	0
3.1515	0	0	0	0	0	0	-119.594254	1177.245117	31.798311	1.240419	0	-0.335324	0	0	0	0	-5.844519	0
3.152	0	0	0	0	0	0	-121.926712	1184.453491	32.067894	1.239687	0	-0.335378	0	0	0	0	-5.919067	0
3.1525	0	0	0	0	0	0	-124.254158	1191.407715	32.319012	1.23894	0	-0.335435	0	0	0	0	-5.990384	0
3.153	0	0	0	0	0	0	-126.574913	1198.126465	32.551846	1.238178	0	-0.335495	0	0	0	0	-6.058395	0
3.1535	0	0	0	0	0	0	-128.887436	1204.629395	32.766632	1.237401	0	-0.335558	0	0	0	0	-6.123028	0
3.154	0	0	0	0	0	0	-131.190353	1210.93689	32.963673	1.236607	0	-0.335624	0	0	0	0	-6.184211	0
3.1545	0	0	0	0	0	0	-133.482407	1217.06958	33.143314	1.235798	0	-0.335692	0	0	0	0	-6.241877	0
3.155	0	0	0	0	0	0	-135.762451	1223.048828	33.305962	1.234972	0	-0.335763	0	0	0	0	-6.295959	0
3.1555	0	0	0	0	0	0	-138.029434	1228.895996	33.452053	1.234128	0	-0.335834	0	0	0	0	-6.346395	0
3.156	0	0	0	0	0	0	-140.282394	1234.632813	33.582088	1.233268	0	-0.335907	0	0	0	0	-6.393124	0
3.1565	0	0	0	0	0	0	-142.520386	1240.280762	33.69659	1.232389	0	-0.335981	0	0	0	0	-6.436088	0
3.157	0	0	0	0	0	0	-144.742477	1245.861572	33.796127	1.231493	0	-0.336056	0	0	0	0	-6.475231	0
3.1575	0	0	0	0	0	0	-146.947754	1251.396362	33.881287	1.230579	0	-0.33613	0	0	0	0	-6.510501	0
3.158	0	0	0	0	0	0	-149.135223	1256.90625	33.95269	1.229648	0	-0.336203	0	0	0	0	-6.541847	0
3.1585	0	0	0	0	0	0	-151.303833	1262.411499	34.010975	1.228698	0	-0.336276	0	0	0	0	-6.569222	0
3.159	0	0	0	0	0	0	-153.452438	1267.932251	34.056789	1.227731	0	-0.336347	0	0	0	0	-6.592583	0
3.1595	0	0	0	0	0	0	-155.579697	1273.487549	34.09079	1.226746	0	-0.336416	0	0	0	0	-6.611886	0
3.16	0	0	0	0	0	0	-157.684204	1279.096069	34.113644	1.225745	0	-0.336482	0	0	0	0	-6.627092	0
3.1605	0	0	0	0	0	0	-159.764282	1284.775146	34.126007	1.224726	0	-0.336544	0	0	0	0	-6.638167	0
3.161	0	0	0	0	0	0	-161.8181	1290.541748	34.128529	1.223691	0	-0.336603	0	0	0	0	-6.645076	0
3.1615	0	0	0	0	0	0	-163.843567	1296.411255	34.121841	1.22264	0	-0.336658	0	0	0	0	-6.647789	0
3.162	0	0	0	0	0	0	-165.838379	1302.398315	34.106556	1.221573	0	-0.336708	0	0	0	0	-6.64628	0
3.1625	0	0	0	0	0	0	-167.799973	1308.516357	34.083267	1.220492	0	-0.336753	0	0	0	0	-6.640522	0
3.163	0	0	0	0	0	0	-169.72554	1314.777832	34.052528	1.219396	0	-0.336792	0	0	0	0	-6.630495	0
3.1635	0	0	0	0	0	0	-171.612015	1321.193604	34.014858	1.218286	0	-0.336825	0	0	0	0	-6.61618	0
3.164	0	0	0	0	0	0	-173.45607	1327.77356	33.970737	1.217163	0	-0.336851	0	0	0	0	-6.59756	0
3.1645	0	0	0	0	0	0	-175.254196	1334.526245	33.920601	1.216028	0	-0.33687	0	0	0	0	-6.574625	0
3.165	0	0	0	0	0	0	-177.002594	1341.458984	33.864841	1.214881	0	-0.336883	0	0	0	0	-6.547362	0
3.1655	0	0	0	0	0	0	-178.697311	1348.577881	33.803783	1.213724	0	-0.336887	0	0	0	0	-6.515766	0
3.166	0	0	0	0	0	0	-180.334229	1355.887451	33.737717	1.212556	0	-0.336884	0	0	0	0	-6.479832	0
3.1665	0	0	0	0	0	0	-181.909058	1363.391602	33.666855	1.211378	0	-0.336873	0	0	0	0	-6.439559	0
3.167	0	0	0	0	0	0	-183.417419	1371.092285	33.59137	1.210192	0	-0.336854	0	0	0	0	-6.39495	0
3.1675	0	0	0	0	0	0	-184.854874	1378.990723	33.51136	1.208998	0	-0.336827	0	0	0	0	-6.346009	0
3.168	0	0	0	0	0	0	-186.216949	1387.086792	33.426872	1.207797	0	-0.336792	0	0	0	0	-6.292744	0
3.1685	0	0	0	0	0	0	-187.499176	1395.379272	33.337891	1.206589	0	-0.336749	0	0	0	0	-6.235165	0
